<svg xmlns="http://www.w3.org/2000/svg" xmlns:xlink="http://www.w3.org/1999/xlink" width="92" height="37" viewBox="0 0 92 37">
  <defs>
    <style>
      .cls-1 {
        fill: #1e1f26;
      }

      .cls-2 {
        stroke: #ababab;
        fill: url(#radial-gradient);
      }

      .cls-3 {
        fill: none;
        stroke: #fff;
        stroke-linecap: round;
      }

      .cls-4 {
        fill: #ababab;
        font-size: 11px;
        font-family: DomusTitlingLight, Domus Titling;
        letter-spacing: 0.18em;
      }
    </style>
    <radialGradient id="radial-gradient" cx="0.5" cy="0.5" r="0.591" gradientTransform="translate(0 0)" gradientUnits="objectBoundingBox">
      <stop offset="0" stop-color="#fff"/>
      <stop offset="1" stop-color="#1e1f26"/>
    </radialGradient>
  </defs>
  <g id="MKA_Designs_v4" data-name="MKA Designs v4" transform="translate(-71 -160)">
    <rect id="Rectangle_2" data-name="Rectangle 2" class="cls-1" width="92" height="37" transform="translate(71 160)"/>
    <g id="Group_6" data-name="Group 6" transform="translate(73.739 165.478)">
      <g id="Group_5" data-name="Group 5" transform="translate(59.978 -0.673)">
        <path id="Path_1" data-name="Path 1" class="cls-2" d="M194,269.92V242l25.166,27.92V242Z" transform="translate(-194 -242)"/>
      </g>
      <path id="M" class="cls-3" d="M266,254.521V242l6.26,6.26,6.26-6.26v12.521" transform="translate(-263.809 -242)"/>
      <g id="K" transform="translate(23.268 -0.313)">
        <path id="Path_3" data-name="Path 3" class="cls-3" d="M330,242v12.521L340.434,242" transform="translate(-330 -242)"/>
        <path id="Path_4" data-name="Path 4" class="cls-3" d="M355.631,272.723,349.749,266" transform="translate(-344.533 -259.576)"/>
      </g>
      <path id="A" class="cls-3" d="M394.347,246.174,386,254.521V242l12.521,12.521" transform="translate(-343.743 -242)"/>
      <text id="designs" class="cls-4" transform="translate(0.261 27.522)"><tspan x="0" y="0">DESIGNS</tspan></text>
    </g>
  </g>
</svg>
